<svg width="75" height="70" viewBox="0 0 191 192" fill="none" xmlns="http://www.w3.org/2000/svg">
<g id="coders caravan black logo-01 (1) 1" clip-path="url(#clip0_183_221)">
<path id="Vector" d="M116.176 87.7825C119.783 87.7825 123.309 88.8522 126.308 90.8563C129.308 92.8603 131.645 95.7088 133.026 99.0414C134.406 102.374 134.767 106.041 134.064 109.579C133.36 113.117 131.623 116.367 129.072 118.917C126.521 121.468 123.272 123.205 119.734 123.909C116.196 124.613 112.529 124.251 109.196 122.871C105.863 121.491 103.015 119.153 101.011 116.154C99.0069 113.154 97.9372 109.628 97.9372 106.021C97.9456 101.186 99.8699 96.5523 103.288 93.1337C106.707 89.7152 111.341 87.7909 116.176 87.7825ZM116.176 116.146C118.179 116.146 120.137 115.552 121.802 114.439C123.468 113.327 124.766 111.745 125.532 109.894C126.299 108.044 126.499 106.007 126.108 104.043C125.717 102.078 124.752 100.274 123.336 98.8576C121.919 97.4413 120.115 96.477 118.15 96.0864C116.186 95.6958 114.149 95.8966 112.299 96.6634C110.448 97.4302 108.867 98.7285 107.754 100.394C106.642 102.06 106.048 104.018 106.048 106.021C106.052 108.706 107.12 111.279 109.018 113.178C110.917 115.076 113.491 116.144 116.176 116.146ZM56.8055 101.964C57.8035 97.594 60.3763 93.7443 64.0327 91.1505C67.689 88.5567 72.1726 87.4004 76.6273 87.9026C81.082 88.4048 85.1957 90.5302 88.1828 93.8729C91.1699 97.2157 92.8211 101.542 92.8211 106.024C92.8211 110.507 91.1699 114.833 88.1828 118.176C85.1957 121.519 81.082 123.644 76.6273 124.146C72.1726 124.649 67.689 123.492 64.0327 120.898C60.3763 118.305 57.8035 114.455 56.8055 110.085C56.1971 107.412 56.1971 104.637 56.8055 101.964ZM74.5867 116.146C76.5898 116.147 78.548 115.553 80.2137 114.44C81.8794 113.328 83.1777 111.746 83.9444 109.895C84.7111 108.045 84.9118 106.009 84.5211 104.044C84.1304 102.079 83.1658 100.275 81.7494 98.8582C80.333 97.4418 78.5284 96.4772 76.5637 96.0865C74.5991 95.6958 72.5627 95.8965 70.7121 96.6633C68.8616 97.43 67.2799 98.7283 66.1673 100.394C65.0546 102.06 64.4609 104.018 64.4613 106.021C64.4646 108.705 65.5324 111.279 67.4306 113.177C69.3287 115.075 71.9023 116.143 74.5867 116.146ZM38.2228 94.817V106.021C38.2228 107.098 38.6506 108.13 39.412 108.892C40.1734 109.653 41.2061 110.081 42.2829 110.081H56.8055C56.1971 107.408 56.1971 104.633 56.8055 101.961H46.3376V94.817C46.3376 67.7736 68.3377 45.7752 95.3812 45.7752C122.425 45.7752 144.425 67.7736 144.425 94.817V101.964H133.957C134.565 104.637 134.565 107.412 133.957 110.085H148.479C149.556 110.085 150.589 109.657 151.35 108.895C152.112 108.134 152.539 107.101 152.539 106.024V94.817C152.539 63.3022 126.899 37.6622 95.3847 37.6622C63.8699 37.6622 38.2263 63.3022 38.2263 94.817H38.2228ZM164.476 72.2379C160.993 73.3906 159.196 76.8081 160.081 80.5821C161.059 84.7552 164.799 87.2106 168.852 86.2609C172.905 85.3112 175.17 81.4895 174.275 77.6554C173.888 76.0049 173.131 74.9263 172.137 74.2573L173.11 74.0296L172.271 70.4532L166.57 71.7895L167.427 75.4453C169.051 75.3994 170.363 76.4338 170.758 78.1232C171.247 80.2079 170.014 82.0067 167.966 82.4868C165.918 82.967 164.015 81.9025 163.526 79.8178C163.131 78.1285 163.879 76.6739 165.36 76.0137L164.476 72.2379ZM158.155 56.5873C154.518 58.3931 153.066 62.6226 154.977 66.4585C156.889 70.2943 161.115 71.6765 164.755 69.8742C168.395 68.0719 169.853 63.8565 167.948 60.0207C166.044 56.1848 161.809 54.7726 158.155 56.5873ZM159.86 60.0224C161.652 59.1398 163.848 59.7047 164.783 61.5864C165.719 63.4682 164.836 65.5459 163.044 66.4355C161.253 67.3252 159.076 66.7445 158.149 64.8804C157.223 63.0163 158.07 60.9121 159.86 60.0224ZM158.149 45.3163C155.373 41.8935 151.251 41.2174 148.05 43.814C144.802 46.4495 144.598 50.6332 147.374 54.0524L151.869 59.5847L154.261 57.6429L153.36 56.5343L159.35 51.6746L160.25 52.7832L162.637 50.845L158.149 45.3163ZM149.989 51.9359C148.665 50.3031 148.864 48.1195 150.479 46.8079C152.049 45.5352 154.211 45.8052 155.535 47.4363L156.743 48.9262L151.198 53.424L149.989 51.9359ZM138.882 33.4945L141.277 35.468L142.262 34.2712L145.161 36.6578L143.734 38.3895L140.255 35.5227L138.335 37.8529L141.807 40.7196L140.432 42.3877L137.535 40.0011L138.525 38.8061L136.132 36.8343L133.095 40.5184L142.4 48.1865L144.359 45.8088L143.258 44.8997L148.162 38.9473L149.263 39.8652L151.223 37.4874L141.918 29.821L138.882 33.4945ZM119.807 33.3444L125.148 36.1688L126.096 34.3577L128.539 33.2685L130.004 34.0399L128.072 37.7028L132.674 40.13L134.11 37.4045L132.848 36.739L136.446 29.9164L137.708 30.5836L139.145 27.8616L132.539 24.3788C129.328 22.6842 126.502 23.3197 125.065 26.0417C124.22 27.648 124.329 29.3215 125.311 30.739L123.155 31.6322L121.244 30.6224L119.807 33.3444ZM129.427 30.2765C128.345 29.7045 127.946 28.7107 128.432 27.791C128.917 26.8713 129.934 26.6913 131.018 27.2614L133.021 28.3206L131.433 31.3338L129.427 30.2765ZM113.62 23.152C111.131 22.9543 109.399 23.6815 108.742 25.9887C107.974 28.6983 109.422 30.8466 112.465 31.7098C114.133 32.1829 115.583 32.0841 116.749 31.4821L116.455 32.5236L119.496 33.385L120.765 28.9102L117.588 28.0081C116.55 28.9013 115.47 29.1891 113.98 28.7672C112.921 28.4671 112.481 27.9181 112.636 27.3691C112.76 26.9366 113.148 26.5377 114.264 26.6418L117.005 26.8466C119.794 27.1079 121.404 26.1405 122.004 24.0222C122.795 21.2367 121.09 19.099 118.184 18.2746C116.908 17.9216 115.491 17.828 114.269 18.3947L114.509 17.5509L111.565 16.7159L110.379 20.896L113.754 21.8598C114.414 21.1767 115.394 20.7124 116.728 21.0902C117.71 21.3691 118.193 21.9092 117.987 22.6348C117.798 23.302 117.203 23.4521 116.257 23.3532L113.62 23.152ZM87.4376 23.4485C87.8242 27.0937 90.781 29.5774 94.6574 29.5139C98.9416 29.445 102.135 26.3135 102.071 22.1511C102.008 17.9887 98.7527 14.9613 94.8145 15.0248C93.1217 15.0513 91.9054 15.5544 91.0422 16.3911L91.0263 15.392L87.3546 15.4502L87.4482 21.3055L91.2011 21.2455C91.5029 19.6568 92.7898 18.5871 94.525 18.5588C96.668 18.5253 98.1614 20.1122 98.1967 22.2146C98.232 24.317 96.7845 25.9499 94.6451 25.9852C92.9116 26.0134 91.6441 24.9719 91.3176 23.385L87.4376 23.4485ZM72.0447 32.8608L77.1074 31.6657L76.5602 29.3426L76.6802 28.5183L81.9654 27.2667L82.4173 27.9358L82.9698 30.2782L87.9124 29.1114L87.2063 26.1105L85.8171 26.4388L80.8286 19.6903L82.299 19.3373L81.5929 16.3364L74.885 17.9251L72.8744 29.4892L71.3457 29.8422L72.0447 32.8608ZM77.7288 21.1184L80.0536 24.49L77.1551 25.1732L77.7288 21.1184ZM59.2221 39.3145L64.6449 36.656L63.7464 34.8237L64.313 32.2094L65.7958 31.4804L67.6193 35.1997L72.2919 32.9049L70.9344 30.1388L69.6528 30.769L66.2548 23.8475L67.5381 23.219L66.1753 20.4476L59.4674 23.7345C56.207 25.3338 55.0544 27.9887 56.41 30.7548C57.2097 32.3859 58.6272 33.2827 60.3518 33.3233L59.8046 35.5898L57.8628 36.543L59.2221 39.3145ZM62.4083 29.731C61.3086 30.2606 60.2706 30.0064 59.8134 29.0726C59.3562 28.1388 59.8134 27.2102 60.9079 26.6718L62.9414 25.6745L64.4419 28.7336L62.4083 29.731ZM46.7154 49.5193L50.7366 46.2201L49.222 44.3754L48.9678 43.581L53.162 40.1388L53.8681 40.5395L55.395 42.4019L59.3174 39.1768L57.3633 36.7955L56.2582 37.701L48.8107 33.8369L49.9775 32.8784L48.0234 30.4971L42.6924 34.8714L45.974 46.1406L44.7595 47.138L46.7154 49.5193ZM46.6501 36.4795L50.2229 38.4848L47.9281 40.3736L46.6501 36.4795ZM30.7735 52.4584L42.3005 55.5211L44.8742 52.3543L39.5273 41.694L40.5318 40.4583L38.1416 38.5166L33.3755 44.3719L35.7656 46.3136L36.8089 45.0303L40.0234 51.0321L33.492 49.1098L34.5335 47.8264L32.1434 45.8847L27.3772 51.7417L29.7673 53.6835L30.7735 52.4584ZM32.1045 73.0216L34.4646 68.3844L32.3464 67.3005L31.7938 66.6774L34.2563 61.8389L35.0578 61.9271L37.2043 63.0198L39.4991 58.4902L36.7542 57.0939L36.1063 58.3667L27.732 57.8141L28.4169 56.469L25.6702 55.071L22.5422 61.2246L30.0674 70.2273L29.3613 71.6271L32.1045 73.0216ZM26.8088 61.1028L30.8848 61.5052L29.5343 64.1531L26.8088 61.1028ZM18.3798 84.2521L28.8741 86.7728L29.5555 83.9361L23.9862 76.1991L28.0145 77.1664L27.7038 78.4568L30.7047 79.1753L32.2299 72.8204L29.229 72.1002L28.8953 73.4894L21.3966 71.6889L21.7302 70.2996L18.7293 69.5794L17.739 73.7066L23.5361 81.6077L19.2713 80.5821L19.5802 79.2935L16.5793 78.5733L15.0541 84.9282L18.055 85.6484L18.3798 84.2521ZM26.2863 119.762C29.7691 118.609 31.5661 115.191 30.6817 111.417C29.7038 107.244 25.9633 104.789 21.9103 105.739C17.8573 106.688 15.589 110.505 16.4875 114.344C16.8741 115.995 17.6313 117.075 18.6252 117.742L17.6525 117.97L18.4893 121.546L24.1927 120.21L23.3348 116.554C21.7108 116.6 20.3992 115.566 20.0038 113.878C19.5149 111.792 20.7488 109.994 22.7964 109.514C24.8441 109.034 26.747 110.097 27.236 112.182C27.6314 113.871 26.8829 115.326 25.4019 115.986L26.2863 119.762ZM32.6076 135.412C36.244 133.606 37.6968 129.377 35.785 125.541C33.8733 121.705 29.6473 120.323 26.0074 122.125C22.3675 123.927 20.9094 128.143 22.8141 131.979C24.7188 135.815 28.9536 137.227 32.6076 135.412ZM30.9024 131.977C29.1107 132.86 26.9147 132.295 25.9792 130.413C25.0436 128.531 25.9262 126.454 27.7161 125.564C29.5061 124.674 31.6862 125.255 32.6111 127.119C33.5361 128.983 32.6923 131.087 30.9024 131.977ZM32.6129 146.685C35.3896 150.106 39.5114 150.782 42.7118 148.185C45.9599 145.55 46.1646 141.366 43.3879 137.947L38.8936 132.415L36.5017 134.357L37.402 135.465L31.4126 140.325L30.5123 139.216L28.1204 141.158L32.6129 146.685ZM40.7736 140.065C42.0975 141.696 41.898 143.88 40.2829 145.184C38.7136 146.457 36.5511 146.189 35.2272 144.556L34.0198 143.066L39.5644 138.575L40.7736 140.065ZM51.8805 158.505L49.485 156.531L48.5 157.728L45.6015 155.342L47.0278 153.61L50.5106 156.477L52.4312 154.147L48.9555 151.28L50.3306 149.612L53.2273 151.998L52.2406 153.195L54.6342 155.167L57.6704 151.483L48.3659 143.816L46.4065 146.192L47.508 147.102L42.6006 153.052L41.4991 152.145L39.5397 154.521L48.8443 162.196L51.8805 158.505ZM70.9556 158.655L65.614 155.831L64.6661 157.642L62.223 158.731L60.7614 157.959L62.6943 154.297L58.0906 151.869L56.6537 154.595L57.9176 155.26L54.32 162.083L53.0579 161.416L51.6174 164.138L58.2229 167.624C61.4339 169.319 64.2601 168.683 65.697 165.961C66.5425 164.355 66.4331 162.681 65.4516 161.264L67.6052 160.371L69.5187 161.38L70.9556 158.655ZM61.3333 161.723C62.4171 162.295 62.8143 163.289 62.3307 164.208C61.847 165.128 60.8284 165.308 59.7446 164.738L57.741 163.679L59.3298 160.666L61.3333 161.723ZM77.1427 168.847C79.6317 169.045 81.3617 168.327 82.0201 166.011C82.788 163.301 81.3405 161.153 78.2972 160.29C76.6291 159.816 75.1798 159.915 74.013 160.517L74.3078 159.478L71.2645 158.614L69.9971 163.089L73.1745 163.991C74.2124 163.098 75.2928 162.81 76.7826 163.232C77.8418 163.534 78.2813 164.081 78.1242 164.632C78.0024 165.063 77.6141 165.462 76.4984 165.358L73.757 165.153C70.9679 164.892 69.358 165.859 68.7579 167.977C67.967 170.764 69.6723 172.902 72.5778 173.725C73.8541 174.087 75.2716 174.171 76.4931 173.605L76.2531 174.449L79.1975 175.283L80.3766 171.103L77.0086 170.14C76.3484 170.821 75.3687 171.285 74.0342 170.907C73.0527 170.629 72.569 170.088 72.7756 169.363C72.9644 168.696 73.5575 168.546 74.5055 168.644L77.1427 168.847ZM103.325 168.551C102.94 164.906 99.9831 162.422 96.1067 162.486C91.8224 162.554 88.6291 165.686 88.6927 169.848C88.7562 174.011 92.0113 177.038 95.9478 176.975C97.6424 176.948 98.8587 176.445 99.7219 175.608L99.7377 176.607L103.409 176.549L103.316 170.694L99.563 170.754C99.2611 172.343 97.9743 173.412 96.2391 173.441C94.0961 173.474 92.6027 171.887 92.5674 169.785C92.5321 167.682 93.9796 166.05 96.119 166.014C97.8525 165.986 99.1199 167.027 99.4465 168.614L103.325 168.551ZM118.719 159.142L113.657 160.337L114.204 162.66L114.084 163.485L108.8 164.72L108.35 164.051L107.798 161.709L102.855 162.874L103.561 165.875L104.95 165.548L109.936 172.295L108.467 172.648L109.173 175.649L115.881 174.06L117.893 162.498L119.422 162.145L118.719 159.142ZM113.034 170.883L110.709 167.511L113.607 166.828L113.034 170.883ZM131.54 152.685L126.117 155.343L127.016 157.176L126.449 159.79L124.966 160.519L123.143 156.8L118.47 159.095L119.828 161.861L121.109 161.23L124.508 168.152L123.224 168.78L124.587 171.552L131.295 168.263C134.555 166.664 135.708 164.009 134.352 161.243C133.553 159.612 132.135 158.715 130.41 158.674L130.958 156.408L132.899 155.455L131.54 152.685ZM128.363 162.268C129.463 161.739 130.501 161.993 130.958 162.929C131.415 163.864 130.958 164.789 129.863 165.329L127.83 166.325L126.329 163.266L128.363 162.268ZM144.056 142.48L140.026 145.779L141.54 147.624L141.794 148.418L137.6 151.861L136.894 151.46L135.367 149.598L131.445 152.823L133.399 155.204L134.504 154.298L141.952 158.164L140.785 159.121L142.739 161.502L148.07 157.128L144.787 145.859L146.001 144.861L144.056 142.48ZM144.121 155.52L140.548 153.516L142.852 151.626L144.121 155.52ZM159.989 139.541L148.462 136.478L145.888 139.645L151.235 150.305L150.231 151.541L152.621 153.483L157.387 147.628L154.995 145.686L153.953 146.969L150.739 140.967L157.27 142.89L156.229 144.173L158.619 146.115L163.385 140.258L160.995 138.316L159.989 139.541ZM158.658 118.978L156.298 123.615L158.416 124.699L158.968 125.322L156.497 130.161L155.696 130.072L153.549 128.98L151.246 133.509L153.991 134.906L154.638 133.633L163.013 134.185L162.328 135.53L165.074 136.928L168.22 130.775L160.695 121.772L161.401 120.372L158.658 118.978ZM163.953 130.897L159.876 130.494L161.228 127.846L163.953 130.897ZM172.377 107.747L161.883 105.227L161.201 108.063L166.771 115.8L162.743 114.833L163.053 113.544L160.052 112.824L158.527 119.179L161.528 119.899L161.862 118.51L169.36 120.312L169.027 121.7L172.028 122.42L173.018 118.293L167.226 110.392L171.491 111.417L171.182 112.706L174.183 113.426L175.708 107.071L172.707 106.351L172.377 107.747ZM95.3812 190.403C120.598 190.403 144.303 180.583 162.134 162.752C179.964 144.921 189.784 121.216 189.784 95.9997C189.784 70.7833 179.964 47.078 162.134 29.2473C144.303 11.4167 120.598 1.59668 95.3812 1.59668C70.1648 1.59668 46.4594 11.4167 28.6288 29.2473C10.7981 47.078 0.978104 70.7833 0.978104 95.9997C0.978104 121.216 10.7981 144.921 28.6288 162.752C46.4594 180.583 70.1648 190.403 95.3812 190.403ZM95.3812 8.46168C143.65 8.46168 182.919 47.7311 182.919 95.9997C182.919 144.268 143.65 183.538 95.3812 183.538C47.1125 183.538 7.84311 144.268 7.84311 95.9997C7.84311 47.7311 47.1125 8.46168 95.3812 8.46168ZM167.346 100.96C167.592 100.96 167.836 100.912 168.063 100.817C168.29 100.723 168.496 100.585 168.67 100.411L173.18 95.9079L168.852 91.5866C168.501 91.2355 168.025 91.0382 167.528 91.0382C167.032 91.0382 166.555 91.2355 166.204 91.5866C165.853 91.9378 165.656 92.414 165.656 92.9105C165.656 93.4071 165.853 93.8833 166.204 94.2345L167.885 95.915L166.022 97.7649C165.761 98.027 165.583 98.3605 165.512 98.7234C165.44 99.0863 165.477 99.4623 165.619 99.8041C165.76 100.146 166 100.438 166.307 100.644C166.615 100.849 166.976 100.959 167.346 100.96ZM23.416 100.96C23.786 100.959 24.1475 100.849 24.4549 100.644C24.7624 100.438 25.0021 100.146 25.1437 99.8041C25.2853 99.4623 25.3225 99.0863 25.2507 98.7234C25.1788 98.3605 25.0011 98.027 24.74 97.7649L22.8776 95.9009L24.5581 94.2345C24.732 94.0606 24.8699 93.8542 24.964 93.627C25.0581 93.3999 25.1065 93.1564 25.1065 92.9105C25.1065 92.6647 25.0581 92.4212 24.964 92.194C24.8699 91.9669 24.732 91.7605 24.5581 91.5866C24.3843 91.4128 24.1779 91.2749 23.9507 91.1808C23.7236 91.0867 23.4801 91.0382 23.2342 91.0382C22.9883 91.0382 22.7449 91.0867 22.5177 91.1808C22.2905 91.2749 22.0841 91.4128 21.9103 91.5866L17.5819 95.9132L22.0921 100.413C22.2654 100.588 22.4716 100.727 22.6988 100.822C22.926 100.917 23.1697 100.966 23.416 100.967V100.96ZM58.08 136.609H131.039C131.149 136.608 131.254 136.565 131.331 136.487C131.409 136.409 131.452 136.304 131.452 136.194V129.781C131.453 129.726 131.443 129.672 131.422 129.621C131.402 129.571 131.371 129.524 131.333 129.486C131.294 129.447 131.249 129.416 131.198 129.395C131.148 129.374 131.094 129.363 131.039 129.363H58.08C58.0257 129.363 57.972 129.373 57.9219 129.394C57.8718 129.415 57.8262 129.445 57.7879 129.484C57.7495 129.522 57.7191 129.568 57.6983 129.618C57.6776 129.668 57.6669 129.721 57.6669 129.776V136.194C57.6669 136.304 57.7104 136.409 57.7878 136.487C57.8652 136.565 57.9702 136.608 58.08 136.609ZM68.9803 149.319H120.132C120.186 149.319 120.24 149.308 120.29 149.287C120.341 149.266 120.386 149.236 120.425 149.197C120.463 149.159 120.494 149.113 120.515 149.063C120.536 149.012 120.546 148.958 120.546 148.904V142.485C120.546 142.431 120.536 142.377 120.515 142.327C120.494 142.276 120.463 142.231 120.425 142.192C120.386 142.154 120.341 142.123 120.29 142.102C120.24 142.081 120.186 142.071 120.132 142.071H68.9803C68.8703 142.071 68.7648 142.114 68.687 142.192C68.6092 142.27 68.5655 142.375 68.5655 142.485V148.897C68.5659 149.006 68.6098 149.112 68.6876 149.189C68.7653 149.266 68.8706 149.31 68.9803 149.31V149.319ZM50.2229 74.5097H140.539V66.3897H50.2229V74.5097ZM80.8374 74.5097C81.9142 74.5097 82.9469 74.082 83.7083 73.3206C84.4697 72.5592 84.8974 71.5265 84.8974 70.4497V46.0065C84.8974 44.9297 84.4697 43.897 83.7083 43.1356C82.9469 42.3742 81.9142 41.9464 80.8374 41.9464C79.7606 41.9464 78.7279 42.3742 77.9665 43.1356C77.2051 43.897 76.7773 44.9297 76.7773 46.0065V70.4532C76.7783 71.5294 77.2064 72.5612 77.9678 73.3218C78.729 74.0825 79.7612 74.5097 80.8374 74.5097Z" fill="white"/>
</g>
<defs>
<clipPath id="clip0_183_221">
<rect width="190.646" height="190.646" fill="white" transform="matrix(-1 0 0 1 190.703 0.677246)"/>
</clipPath>
</defs>
</svg>
